<mxfile host="65bd71144e">
    <diagram id="nKJZuP3_xFPf2Oqtulhe" name="第 1 页">
        <mxGraphModel dx="1566" dy="499" grid="1" gridSize="10" guides="1" tooltips="1" connect="1" arrows="1" fold="1" page="1" pageScale="1" pageWidth="1000000" pageHeight="1000000" background="#FFFFE0" math="0" shadow="0">
            <root>
                <mxCell id="0"/>
                <mxCell id="1" parent="0"/>
                <mxCell id="6" value="int Print(unsigned int n) {&lt;br&gt;&amp;nbsp; &amp;nbsp;if (n &amp;gt; 9) {&lt;br&gt;&amp;nbsp; &amp;nbsp; &amp;nbsp; Print(n / 10);&lt;br&gt;&amp;nbsp; &amp;nbsp;}&lt;br&gt;&amp;nbsp; &amp;nbsp;printf(&quot;%d&quot;, n % 10);&lt;br&gt;}" style="text;whiteSpace=wrap;html=1;fontSize=20;fontColor=#009900;" vertex="1" parent="1">
                    <mxGeometry x="400" y="30" width="250" height="170" as="geometry"/>
                </mxCell>
                <mxCell id="7" value="int main() {&lt;br&gt;&amp;nbsp; &amp;nbsp;int a = 12345;&amp;nbsp;&amp;nbsp;&lt;br&gt;&amp;nbsp; &amp;nbsp;Print(a);&lt;br&gt;&amp;nbsp; &amp;nbsp;return 0;&lt;br&gt;}" style="text;whiteSpace=wrap;html=1;fontSize=20;fontColor=#009900;" vertex="1" parent="1">
                    <mxGeometry x="60" y="30" width="160" height="140" as="geometry"/>
                </mxCell>
                <mxCell id="8" value="int Print(unsigned int n) {&lt;br&gt;&amp;nbsp; &amp;nbsp;if (n &amp;gt; 9) {&lt;br&gt;&amp;nbsp; &amp;nbsp; &amp;nbsp; Print(n / 10);&lt;br&gt;&amp;nbsp; &amp;nbsp;}&lt;br&gt;&amp;nbsp; &amp;nbsp;printf(&quot;%d&quot;, n % 10);&lt;br&gt;}" style="text;whiteSpace=wrap;html=1;fontSize=20;fontColor=#009900;" vertex="1" parent="1">
                    <mxGeometry x="60" y="270" width="250" height="170" as="geometry"/>
                </mxCell>
                <mxCell id="9" value="int Print(unsigned int n) {&lt;br&gt;&amp;nbsp; &amp;nbsp;if (n &amp;gt; 9) {&lt;br&gt;&amp;nbsp; &amp;nbsp; &amp;nbsp; Print(n / 10);&lt;br&gt;&amp;nbsp; &amp;nbsp;}&lt;br&gt;&amp;nbsp; &amp;nbsp;printf(&quot;%d&quot;, n % 10);&lt;br&gt;}" style="text;whiteSpace=wrap;html=1;fontSize=20;fontColor=#009900;" vertex="1" parent="1">
                    <mxGeometry x="400" y="270" width="250" height="170" as="geometry"/>
                </mxCell>
                <mxCell id="10" value="int Print(unsigned int n) {&lt;br&gt;&amp;nbsp; &amp;nbsp;if (n &amp;gt; 9) {&lt;br&gt;&amp;nbsp; &amp;nbsp; &amp;nbsp; Print(n / 10);&lt;br&gt;&amp;nbsp; &amp;nbsp;}&lt;br&gt;&amp;nbsp; &amp;nbsp;printf(&quot;%d&quot;, n % 10);&lt;br&gt;}" style="text;whiteSpace=wrap;html=1;fontSize=20;fontColor=#009900;" vertex="1" parent="1">
                    <mxGeometry x="60" y="510" width="250" height="170" as="geometry"/>
                </mxCell>
                <mxCell id="11" value="int Print(unsigned int n) {&lt;br&gt;&amp;nbsp; &amp;nbsp;if (n &amp;gt; 9) {&lt;br&gt;&amp;nbsp; &amp;nbsp; &amp;nbsp; Print(n / 10);&lt;br&gt;&amp;nbsp; &amp;nbsp;}&lt;br&gt;&amp;nbsp; &amp;nbsp;printf(&quot;%d&quot;, n % 10);&lt;br&gt;}" style="text;whiteSpace=wrap;html=1;fontSize=20;fontColor=#009900;" vertex="1" parent="1">
                    <mxGeometry x="400" y="510" width="250" height="170" as="geometry"/>
                </mxCell>
                <mxCell id="16" value="" style="endArrow=classic;html=1;fontSize=20;fontColor=#009900;" edge="1" parent="1">
                    <mxGeometry width="50" height="50" relative="1" as="geometry">
                        <mxPoint x="150" y="100" as="sourcePoint"/>
                        <mxPoint x="390" y="50" as="targetPoint"/>
                    </mxGeometry>
                </mxCell>
                <mxCell id="17" value="n = 12345" style="text;html=1;align=center;verticalAlign=middle;resizable=0;points=[];autosize=1;strokeColor=none;fillColor=none;fontSize=20;fontColor=#F00000;" vertex="1" parent="1">
                    <mxGeometry x="640" y="30" width="110" height="40" as="geometry"/>
                </mxCell>
                <mxCell id="93" value="执行 printf(&quot;%d&quot;，n) 输出 12345" style="text;html=1;align=center;verticalAlign=middle;resizable=0;points=[];autosize=1;strokeColor=none;fillColor=none;fontSize=20;fontColor=#F00000;" vertex="1" parent="1">
                    <mxGeometry x="390" y="1060" width="310" height="40" as="geometry"/>
                </mxCell>
                <mxCell id="135" style="edgeStyle=none;html=1;exitX=0.5;exitY=1;exitDx=0;exitDy=0;fontSize=20;fontColor=#F00000;sketch=1;curveFitting=1;jiggle=2;strokeColor=#009900;entryX=0.5;entryY=0;entryDx=0;entryDy=0;" edge="1" parent="1" source="136">
                    <mxGeometry relative="1" as="geometry">
                        <mxPoint x="805" y="1025" as="targetPoint"/>
                    </mxGeometry>
                </mxCell>
                <mxCell id="136" value="调用 Print(12345)" style="rounded=1;whiteSpace=wrap;html=1;fontSize=20;fontColor=#000000;sketch=1;curveFitting=1;jiggle=2;glass=0;strokeColor=#009900;fillColor=#009900;" vertex="1" parent="1">
                    <mxGeometry x="705" y="880" width="200" height="60" as="geometry"/>
                </mxCell>
                <mxCell id="138" style="edgeStyle=none;sketch=1;html=1;exitX=1;exitY=0.5;exitDx=0;exitDy=0;fontSize=20;fontColor=#F00000;strokeColor=#009900;" edge="1" parent="1">
                    <mxGeometry relative="1" as="geometry">
                        <mxPoint x="1020.0000000001164" y="1080" as="targetPoint"/>
                        <mxPoint x="920" y="1080" as="sourcePoint"/>
                    </mxGeometry>
                </mxCell>
                <mxCell id="142" value="是" style="text;html=1;align=center;verticalAlign=middle;resizable=0;points=[];autosize=1;strokeColor=none;fillColor=none;fontSize=20;fontColor=#F00000;" vertex="1" parent="1">
                    <mxGeometry x="950" y="1040" width="40" height="40" as="geometry"/>
                </mxCell>
                <mxCell id="143" style="edgeStyle=none;sketch=1;html=1;fontSize=20;fontColor=#F00000;strokeColor=#009900;entryX=0.5;entryY=0;entryDx=0;entryDy=0;" edge="1" parent="1" source="144" target="146">
                    <mxGeometry relative="1" as="geometry">
                        <mxPoint x="1130.0000000001164" y="1180" as="targetPoint"/>
                    </mxGeometry>
                </mxCell>
                <mxCell id="144" value="调用 Print(1234)" style="rounded=1;whiteSpace=wrap;html=1;fontSize=20;fontColor=#000000;sketch=1;curveFitting=1;jiggle=2;glass=0;labelBackgroundColor=none;strokeColor=#009900;fillColor=#009900;" vertex="1" parent="1">
                    <mxGeometry x="1020" y="1050" width="200" height="60" as="geometry"/>
                </mxCell>
                <mxCell id="177" style="edgeStyle=none;sketch=1;html=1;exitX=1;exitY=0.5;exitDx=0;exitDy=0;entryX=0;entryY=0.5;entryDx=0;entryDy=0;strokeColor=#009900;fontSize=20;fontColor=#000000;" edge="1" parent="1" source="146" target="149">
                    <mxGeometry relative="1" as="geometry"/>
                </mxCell>
                <mxCell id="146" value="Print 函数体&lt;br&gt;n &amp;gt; 9" style="rhombus;whiteSpace=wrap;html=1;rounded=1;glass=0;sketch=1;fontSize=20;fontColor=#000000;strokeColor=#009900;fillColor=#009900;" vertex="1" parent="1">
                    <mxGeometry x="1000" y="1185" width="240" height="110" as="geometry"/>
                </mxCell>
                <mxCell id="147" value="是" style="text;html=1;align=center;verticalAlign=middle;resizable=0;points=[];autosize=1;strokeColor=none;fillColor=none;fontSize=20;fontColor=#F00000;sketch=1;curveFitting=1;jiggle=2;" vertex="1" parent="1">
                    <mxGeometry x="1290" y="1200" width="40" height="40" as="geometry"/>
                </mxCell>
                <mxCell id="178" style="edgeStyle=none;sketch=1;html=1;exitX=0.5;exitY=1;exitDx=0;exitDy=0;entryX=0.5;entryY=0;entryDx=0;entryDy=0;strokeColor=#009900;fontSize=20;fontColor=#000000;" edge="1" parent="1" source="149" target="151">
                    <mxGeometry relative="1" as="geometry"/>
                </mxCell>
                <mxCell id="149" value="调用 Print(123)" style="rounded=1;whiteSpace=wrap;html=1;fontSize=20;fontColor=#000000;sketch=1;curveFitting=1;jiggle=2;glass=0;fillColor=#009900;strokeColor=#009900;" vertex="1" parent="1">
                    <mxGeometry x="1355" y="1210" width="200" height="60" as="geometry"/>
                </mxCell>
                <mxCell id="181" style="edgeStyle=none;sketch=1;html=1;exitX=1;exitY=0.5;exitDx=0;exitDy=0;entryX=0;entryY=0.5;entryDx=0;entryDy=0;strokeColor=#009900;fontSize=20;fontColor=#000000;" edge="1" parent="1" source="151" target="154">
                    <mxGeometry relative="1" as="geometry"/>
                </mxCell>
                <mxCell id="151" value="Print 函数体&lt;br&gt;n &amp;gt; 9" style="rhombus;whiteSpace=wrap;html=1;rounded=1;glass=0;sketch=1;fontSize=20;fontColor=#000000;strokeColor=#009900;curveFitting=1;jiggle=2;fillColor=#009900;" vertex="1" parent="1">
                    <mxGeometry x="1340" y="1350" width="230" height="110" as="geometry"/>
                </mxCell>
                <mxCell id="152" value="是" style="text;html=1;align=center;verticalAlign=middle;resizable=0;points=[];autosize=1;strokeColor=none;fillColor=none;fontSize=20;fontColor=#F00000;sketch=1;curveFitting=1;jiggle=2;" vertex="1" parent="1">
                    <mxGeometry x="1610" y="1360" width="40" height="40" as="geometry"/>
                </mxCell>
                <mxCell id="153" style="edgeStyle=none;sketch=1;html=1;exitX=0.5;exitY=1;exitDx=0;exitDy=0;entryX=0.5;entryY=0;entryDx=0;entryDy=0;fontSize=20;fontColor=#F00000;strokeColor=#009900;curveFitting=1;jiggle=2;" edge="1" parent="1" source="154" target="156">
                    <mxGeometry relative="1" as="geometry"/>
                </mxCell>
                <mxCell id="154" value="调用 Print(12)" style="rounded=1;whiteSpace=wrap;html=1;fontSize=20;fontColor=#000000;sketch=1;curveFitting=1;jiggle=2;glass=0;strokeColor=#009900;fillColor=#009900;" vertex="1" parent="1">
                    <mxGeometry x="1665" y="1375" width="200" height="60" as="geometry"/>
                </mxCell>
                <mxCell id="185" style="edgeStyle=none;sketch=1;html=1;exitX=1;exitY=0.5;exitDx=0;exitDy=0;strokeColor=#009900;fontSize=20;fontColor=#000000;" edge="1" parent="1" source="156" target="159">
                    <mxGeometry relative="1" as="geometry"/>
                </mxCell>
                <mxCell id="156" value="Print 函数体&lt;br&gt;n &amp;gt; 9" style="rhombus;whiteSpace=wrap;html=1;rounded=1;glass=0;sketch=1;fontSize=20;fontColor=#000000;strokeColor=#009900;curveFitting=1;jiggle=2;fillColor=#009900;" vertex="1" parent="1">
                    <mxGeometry x="1650" y="1520" width="230" height="110" as="geometry"/>
                </mxCell>
                <mxCell id="157" value="是" style="text;html=1;align=center;verticalAlign=middle;resizable=0;points=[];autosize=1;strokeColor=none;fillColor=none;fontSize=20;fontColor=#F00000;sketch=1;curveFitting=1;jiggle=2;" vertex="1" parent="1">
                    <mxGeometry x="1920" y="1537.5" width="40" height="40" as="geometry"/>
                </mxCell>
                <mxCell id="158" style="edgeStyle=none;sketch=1;html=1;exitX=0.5;exitY=1;exitDx=0;exitDy=0;entryX=0.5;entryY=0;entryDx=0;entryDy=0;fontSize=20;fontColor=#F00000;strokeColor=#009900;curveFitting=1;jiggle=2;" edge="1" parent="1" source="159" target="160">
                    <mxGeometry relative="1" as="geometry"/>
                </mxCell>
                <mxCell id="159" value="调用 Print(1)" style="rounded=1;whiteSpace=wrap;html=1;fontSize=20;fontColor=#000000;sketch=1;curveFitting=1;jiggle=2;glass=0;strokeColor=#009900;fillColor=#009900;" vertex="1" parent="1">
                    <mxGeometry x="1975" y="1550" width="200" height="60" as="geometry"/>
                </mxCell>
                <mxCell id="160" value="Print 函数体&lt;br&gt;n &amp;gt; 9" style="rhombus;whiteSpace=wrap;html=1;rounded=1;glass=0;sketch=1;fontSize=20;fontColor=#000000;fillColor=#009900;strokeColor=#009900;" vertex="1" parent="1">
                    <mxGeometry x="1960" y="1690" width="230" height="110" as="geometry"/>
                </mxCell>
                <mxCell id="161" value="" style="endArrow=none;html=1;sketch=1;fontSize=20;fontColor=#F00000;exitX=0;exitY=0.5;exitDx=0;exitDy=0;strokeColor=#009900;curveFitting=1;jiggle=2;" edge="1" parent="1">
                    <mxGeometry width="50" height="50" relative="1" as="geometry">
                        <mxPoint x="1970.0000000001164" y="1750" as="sourcePoint"/>
                        <mxPoint x="1760.0000000001164" y="1750" as="targetPoint"/>
                    </mxGeometry>
                </mxCell>
                <mxCell id="162" value="" style="endArrow=classic;html=1;sketch=1;fontSize=20;fontColor=#F00000;entryX=0.5;entryY=1;entryDx=0;entryDy=0;strokeColor=#009900;curveFitting=1;jiggle=2;" edge="1" parent="1" target="156">
                    <mxGeometry width="50" height="50" relative="1" as="geometry">
                        <mxPoint x="1765" y="1750" as="sourcePoint"/>
                        <mxPoint x="1809.5" y="1630" as="targetPoint"/>
                    </mxGeometry>
                </mxCell>
                <mxCell id="163" value="否" style="text;html=1;align=center;verticalAlign=middle;resizable=0;points=[];autosize=1;strokeColor=none;fillColor=none;fontSize=20;fontColor=#F00000;sketch=1;curveFitting=1;jiggle=2;" vertex="1" parent="1">
                    <mxGeometry x="1910" y="1700" width="40" height="40" as="geometry"/>
                </mxCell>
                <mxCell id="164" value="执行 printf(&quot;%d&quot;，n) 输出 12" style="text;html=1;align=center;verticalAlign=middle;resizable=0;points=[];autosize=1;strokeColor=none;fillColor=none;fontSize=20;fontColor=#F00000;sketch=1;curveFitting=1;jiggle=2;" vertex="1" parent="1">
                    <mxGeometry x="1420" y="1577.5" width="270" height="40" as="geometry"/>
                </mxCell>
                <mxCell id="165" value="" style="endArrow=none;html=1;sketch=1;fontSize=20;fontColor=#F00000;exitX=0;exitY=0.5;exitDx=0;exitDy=0;strokeColor=#009900;curveFitting=1;jiggle=2;" edge="1" parent="1">
                    <mxGeometry width="50" height="50" relative="1" as="geometry">
                        <mxPoint x="1660.0000000001164" y="1575.96" as="sourcePoint"/>
                        <mxPoint x="1450" y="1576" as="targetPoint"/>
                    </mxGeometry>
                </mxCell>
                <mxCell id="167" value="执行 printf(&quot;%d&quot;，n) 输出 123" style="text;html=1;align=center;verticalAlign=middle;resizable=0;points=[];autosize=1;strokeColor=none;fillColor=none;fontSize=20;fontColor=#F00000;" vertex="1" parent="1">
                    <mxGeometry x="1060" y="1410" width="290" height="40" as="geometry"/>
                </mxCell>
                <mxCell id="168" value="" style="endArrow=none;html=1;sketch=1;fontSize=20;fontColor=#F00000;exitX=0;exitY=0.5;exitDx=0;exitDy=0;strokeColor=#009900;" edge="1" parent="1">
                    <mxGeometry width="50" height="50" relative="1" as="geometry">
                        <mxPoint x="1340.0000000001164" y="1404.5" as="sourcePoint"/>
                        <mxPoint x="1120" y="1405" as="targetPoint"/>
                    </mxGeometry>
                </mxCell>
                <mxCell id="169" value="" style="endArrow=classic;html=1;sketch=1;fontSize=20;fontColor=#F00000;entryX=0.5;entryY=1;entryDx=0;entryDy=0;strokeColor=#009900;curveFitting=1;jiggle=2;" edge="1" parent="1" target="146">
                    <mxGeometry width="50" height="50" relative="1" as="geometry">
                        <mxPoint x="1120" y="1410" as="sourcePoint"/>
                        <mxPoint x="1129.5" y="1295" as="targetPoint"/>
                    </mxGeometry>
                </mxCell>
                <mxCell id="170" value="执行 printf(&quot;%d&quot;，n) 输出 1234" style="text;html=1;align=center;verticalAlign=middle;resizable=0;points=[];autosize=1;strokeColor=none;fillColor=none;fontSize=20;fontColor=#F00000;" vertex="1" parent="1">
                    <mxGeometry x="710" y="1240" width="300" height="40" as="geometry"/>
                </mxCell>
                <mxCell id="171" value="" style="endArrow=none;html=1;sketch=1;fontSize=20;fontColor=#F00000;exitX=0;exitY=0.5;exitDx=0;exitDy=0;strokeColor=#009900;" edge="1" parent="1">
                    <mxGeometry width="50" height="50" relative="1" as="geometry">
                        <mxPoint x="1000.0000000001164" y="1240" as="sourcePoint"/>
                        <mxPoint x="800" y="1240" as="targetPoint"/>
                    </mxGeometry>
                </mxCell>
                <mxCell id="172" value="" style="endArrow=classic;html=1;sketch=1;fontSize=20;fontColor=#F00000;entryX=0.5;entryY=1;entryDx=0;entryDy=0;strokeColor=#009900;" edge="1" parent="1">
                    <mxGeometry width="50" height="50" relative="1" as="geometry">
                        <mxPoint x="805" y="1240" as="sourcePoint"/>
                        <mxPoint x="805" y="1135" as="targetPoint"/>
                    </mxGeometry>
                </mxCell>
                <mxCell id="173" value="执行 printf(&quot;%d&quot;，n) 输出 1" style="text;html=1;align=center;verticalAlign=middle;resizable=0;points=[];autosize=1;strokeColor=none;fillColor=none;fontSize=20;fontColor=#F00000;sketch=1;curveFitting=1;jiggle=2;" vertex="1" parent="1">
                    <mxGeometry x="1740" y="1750" width="260" height="40" as="geometry"/>
                </mxCell>
                <mxCell id="180" value="" style="endArrow=classic;html=1;sketch=1;fontSize=20;fontColor=#F00000;entryX=0.5;entryY=1;entryDx=0;entryDy=0;strokeColor=#009900;curveFitting=1;jiggle=2;" edge="1" parent="1">
                    <mxGeometry width="50" height="50" relative="1" as="geometry">
                        <mxPoint x="1454.7300000001164" y="1580" as="sourcePoint"/>
                        <mxPoint x="1454.23" y="1460" as="targetPoint"/>
                    </mxGeometry>
                </mxCell>
                <mxCell id="186" value="Print 函数体&lt;br&gt;n &amp;gt; 9" style="rhombus;whiteSpace=wrap;html=1;rounded=1;glass=0;sketch=1;fontSize=20;fontColor=#000000;strokeColor=#009900;fillColor=#009900;" vertex="1" parent="1">
                    <mxGeometry x="685" y="1025" width="240" height="110" as="geometry"/>
                </mxCell>
                <mxCell id="187" value="&lt;b&gt;1&lt;/b&gt;" style="text;html=1;align=center;verticalAlign=middle;resizable=0;points=[];autosize=1;strokeColor=none;fillColor=none;fontSize=20;fontColor=#000000;" vertex="1" parent="1">
                    <mxGeometry x="1755" y="1770" width="30" height="40" as="geometry"/>
                </mxCell>
                <mxCell id="189" value="&lt;b&gt;2&lt;/b&gt;" style="text;html=1;align=center;verticalAlign=middle;resizable=0;points=[];autosize=1;strokeColor=none;fillColor=none;fontSize=20;fontColor=#000000;" vertex="1" parent="1">
                    <mxGeometry x="1390" y="1577.5" width="30" height="40" as="geometry"/>
                </mxCell>
                <mxCell id="190" value="&lt;b&gt;3&lt;/b&gt;" style="text;html=1;align=center;verticalAlign=middle;resizable=0;points=[];autosize=1;strokeColor=none;fillColor=none;fontSize=20;fontColor=#000000;" vertex="1" parent="1">
                    <mxGeometry x="1040" y="1410" width="30" height="40" as="geometry"/>
                </mxCell>
                <mxCell id="191" value="&lt;b&gt;4&lt;/b&gt;" style="text;html=1;align=center;verticalAlign=middle;resizable=0;points=[];autosize=1;strokeColor=none;fillColor=none;fontSize=20;fontColor=#000000;" vertex="1" parent="1">
                    <mxGeometry x="685" y="1240" width="30" height="40" as="geometry"/>
                </mxCell>
                <mxCell id="192" value="&lt;b&gt;5&lt;/b&gt;" style="text;html=1;align=center;verticalAlign=middle;resizable=0;points=[];autosize=1;strokeColor=none;fillColor=none;fontSize=20;fontColor=#000000;" vertex="1" parent="1">
                    <mxGeometry x="370" y="1060" width="30" height="40" as="geometry"/>
                </mxCell>
                <mxCell id="195" value="" style="endArrow=classic;html=1;sketch=1;strokeColor=#009900;fontSize=20;fontColor=#000000;entryX=0.996;entryY=1.013;entryDx=0;entryDy=0;entryPerimeter=0;exitX=0.005;exitY=0.509;exitDx=0;exitDy=0;exitPerimeter=0;" edge="1" parent="1" source="173" target="189">
                    <mxGeometry relative="1" as="geometry">
                        <mxPoint x="1470" y="1789.38" as="sourcePoint"/>
                        <mxPoint x="1570" y="1789.38" as="targetPoint"/>
                    </mxGeometry>
                </mxCell>
                <mxCell id="197" value="" style="endArrow=classic;html=1;sketch=1;strokeColor=#009900;fontSize=20;fontColor=#000000;entryX=0.996;entryY=1.013;entryDx=0;entryDy=0;entryPerimeter=0;" edge="1" parent="1">
                    <mxGeometry relative="1" as="geometry">
                        <mxPoint x="1395.12" y="1599.611954758369" as="sourcePoint"/>
                        <mxPoint x="1059.9999999999995" y="1435.0000000000005" as="targetPoint"/>
                    </mxGeometry>
                </mxCell>
                <mxCell id="199" value="" style="endArrow=classic;html=1;sketch=1;strokeColor=#009900;fontSize=20;fontColor=#000000;entryX=0.996;entryY=1.013;entryDx=0;entryDy=0;entryPerimeter=0;" edge="1" parent="1">
                    <mxGeometry relative="1" as="geometry">
                        <mxPoint x="1050.12" y="1435.0019547583688" as="sourcePoint"/>
                        <mxPoint x="714.9999999999997" y="1270.3900000000003" as="targetPoint"/>
                    </mxGeometry>
                </mxCell>
                <mxCell id="201" value="" style="endArrow=classic;html=1;sketch=1;strokeColor=#009900;fontSize=20;fontColor=#000000;" edge="1" parent="1">
                    <mxGeometry relative="1" as="geometry">
                        <mxPoint x="710" y="1264.611954758369" as="sourcePoint"/>
                        <mxPoint x="380" y="1090" as="targetPoint"/>
                    </mxGeometry>
                </mxCell>
            </root>
        </mxGraphModel>
    </diagram>
</mxfile>